<svg xmlns="http://www.w3.org/2000/svg" width="141" height="40" viewBox="0 0 141 40" fill="none">
  <path d="M43.0602 39.6665C42.3385 39.667 41.6308 39.4817 41.0153 39.1311C34.4626 35.4378 29.0449 30.2348 25.2855 24.0249C21.5261 17.8149 19.5523 10.8079 19.5547 3.68108C19.5547 2.707 19.9707 1.77281 20.7111 1.08403C21.4516 0.395253 22.4559 0.00830078 23.5031 0.00830078C24.5503 0.00830078 25.5546 0.395253 26.295 1.08403C27.0355 1.77281 27.4515 2.707 27.4515 3.68108C27.4515 15.7007 34.0578 26.6089 45.1154 32.87C45.8481 33.2876 46.4143 33.9162 46.7281 34.6603C47.0419 35.4044 47.0861 36.2235 46.8541 36.9931C46.6221 37.7627 46.1265 38.441 45.4426 38.9249C44.7586 39.4087 43.9236 39.6719 43.0643 39.6743L43.0602 39.6665Z" fill="url(#paint0_linear_123_13753)"/>
  <path d="M3.93643 39.666C3.07713 39.6636 2.24214 39.4004 1.55818 38.9165C0.874216 38.4327 0.378628 37.7544 0.146628 36.9848C-0.0853714 36.2152 -0.0411203 35.3961 0.272673 34.652C0.586466 33.9079 1.15267 33.2793 1.88534 32.8617C12.9492 26.6064 19.5492 15.6982 19.5492 3.67278C19.5492 2.6987 19.9652 1.76451 20.7057 1.07573C21.4462 0.386952 22.4505 0 23.4976 0C24.5448 0 25.5491 0.386952 26.2896 1.07573C27.0301 1.76451 27.446 2.6987 27.446 3.67278C27.45 10.8002 25.4769 17.808 21.7174 24.0185C17.9579 30.229 12.5392 35.4321 5.98544 39.1247C5.36943 39.478 4.66012 39.6654 3.93643 39.666Z" fill="url(#paint1_linear_123_13753)"/>
  <path d="M3.96444 39.8307C3.08897 39.828 2.23918 39.5521 1.54803 39.0462C0.856884 38.5403 0.363394 37.833 0.144791 37.0349C-0.0738118 36.2368 -0.00519484 35.3931 0.339906 34.6356C0.685008 33.8782 1.28712 33.2498 2.05201 32.8488C8.64748 29.4398 16.05 27.6526 23.5742 27.6526C31.0984 27.6526 38.5009 29.4398 45.0964 32.8488C45.9637 33.3498 46.5928 34.1461 46.853 35.0722C47.1132 35.9984 46.9845 36.9833 46.4936 37.8224C46.0028 38.6616 45.1874 39.2906 44.2169 39.5787C43.2465 39.8669 42.1954 39.7921 41.2819 39.3699C35.8546 36.5674 29.7643 35.0983 23.5742 35.0983C17.384 35.0983 11.2938 36.5674 5.86646 39.3699C5.28429 39.673 4.62973 39.8316 3.96444 39.8307Z" fill="url(#paint2_linear_123_13753)"/>
  <path d="M58.1533 28.678L63.5133 13.8174C63.7809 13.0812 64.2217 12.529 64.8356 12.1609C65.4495 11.7768 66.1421 11.5847 66.9134 11.5847C67.6848 11.5847 68.3774 11.7688 68.9913 12.1369C69.6052 12.489 70.046 13.0412 70.3136 13.7934L75.6972 28.678H71.4234L70.3844 25.437H63.3716L62.2855 28.678H58.1533ZM64.3869 22.1H69.3691L67.2676 15.4019C67.2361 15.3059 67.1889 15.2419 67.126 15.2098C67.0787 15.1618 67.0158 15.1378 66.9371 15.1378C66.8584 15.1378 66.7875 15.1618 66.7245 15.2098C66.6773 15.2579 66.6458 15.3219 66.6301 15.4019L64.3869 22.1Z" fill="#202027"/>
  <path d="M77.13 28.678V25.317H84.19C84.5049 25.317 84.7882 25.2369 85.0401 25.0769C85.292 24.9168 85.4887 24.7088 85.6304 24.4527C85.7878 24.1966 85.8665 23.9165 85.8665 23.6124C85.8665 23.2923 85.7878 23.0043 85.6304 22.7482C85.4887 22.4921 85.292 22.284 85.0401 22.124C84.7882 21.9639 84.5049 21.8839 84.19 21.8839H81.6399C80.6797 21.8839 79.806 21.6918 79.019 21.3077C78.2319 20.9236 77.6022 20.3634 77.13 19.6272C76.6735 18.875 76.4452 17.9787 76.4452 16.9384C76.4452 15.9141 76.6656 15.0258 77.1064 14.2736C77.5471 13.5213 78.1453 12.9371 78.9009 12.521C79.6565 12.0889 80.4908 11.8728 81.4038 11.8728H88.7V15.2339H81.8524C81.5691 15.2339 81.3094 15.3059 81.0732 15.4499C80.8371 15.594 80.6561 15.786 80.5302 16.0261C80.4042 16.2662 80.3413 16.5303 80.3413 16.8183C80.3413 17.1064 80.4042 17.3705 80.5302 17.6106C80.6561 17.8347 80.8371 18.0187 81.0732 18.1628C81.3094 18.3068 81.5691 18.3788 81.8524 18.3788H84.5206C85.5753 18.3788 86.4883 18.5869 87.2596 19.003C88.0467 19.4031 88.6528 19.9713 89.0778 20.7075C89.5185 21.4278 89.7389 22.276 89.7389 23.2523C89.7389 24.4047 89.5107 25.389 89.0542 26.2052C88.6134 27.0055 88.0152 27.6217 87.2596 28.0538C86.504 28.4699 85.6697 28.678 84.7567 28.678H77.13Z" fill="#202027"/>
  <path d="M97.964 28.678C96.7205 28.678 95.6028 28.3979 94.6111 27.8378C93.6194 27.2776 92.8323 26.5093 92.2499 25.533C91.6832 24.5567 91.3999 23.4604 91.3999 22.244C91.3999 21.0116 91.6832 19.9153 92.2499 18.955C92.8323 17.9787 93.6194 17.2105 94.6111 16.6503C95.6028 16.0741 96.7205 15.786 97.964 15.786C99.2076 15.786 100.317 16.0741 101.293 16.6503C102.285 17.2105 103.064 17.9787 103.631 18.955C104.213 19.9153 104.505 21.0116 104.505 22.244C104.505 23.4604 104.213 24.5567 103.631 25.533C103.064 26.5093 102.285 27.2776 101.293 27.8378C100.302 28.3979 99.1919 28.678 97.964 28.678ZM97.964 25.437C98.5465 25.437 99.0502 25.293 99.4752 25.0049C99.9002 24.7168 100.231 24.3327 100.467 23.8525C100.703 23.3724 100.821 22.8282 100.821 22.22C100.821 21.6278 100.703 21.0917 100.467 20.6115C100.231 20.1314 99.9002 19.7472 99.4752 19.4592C99.0502 19.1711 98.5465 19.027 97.964 19.027C97.3816 19.027 96.87 19.1711 96.4292 19.4592C96.0042 19.7472 95.6737 20.1314 95.4375 20.6115C95.2014 21.0917 95.0834 21.6278 95.0834 22.22C95.0834 22.8282 95.2014 23.3724 95.4375 23.8525C95.6737 24.3327 96.0042 24.7168 96.4292 25.0049C96.87 25.293 97.3816 25.437 97.964 25.437Z" fill="#202027"/>
  <path d="M112.775 28.678C111.516 28.678 110.398 28.4139 109.422 27.8858C108.446 27.3416 107.675 26.6134 107.108 25.7011C106.541 24.7728 106.258 23.7165 106.258 22.5321C106.258 21.3477 106.541 20.2994 107.108 19.3871C107.675 18.4588 108.446 17.7226 109.422 17.1785C110.398 16.6343 111.516 16.3622 112.775 16.3622H114.593V19.5072H112.917C112.303 19.5072 111.775 19.6432 111.335 19.9153C110.894 20.1714 110.548 20.5315 110.296 20.9956C110.06 21.4438 109.942 21.9559 109.942 22.5321C109.942 23.1083 110.06 23.6285 110.296 24.0926C110.548 24.5407 110.894 24.9008 111.335 25.1729C111.775 25.429 112.303 25.557 112.917 25.557H114.593V28.678H112.775Z" fill="#202027"/>
  <path d="M116.664 28.678V11.1526H120.324V21.0197H121.93L124.692 16.3622H128.777L125.519 21.4998C126.463 21.8999 127.195 22.5161 127.715 23.3484C128.25 24.1646 128.518 25.1249 128.518 26.2293V28.678H124.834V26.2293C124.834 25.7811 124.724 25.381 124.504 25.0289C124.299 24.6608 124.023 24.3727 123.677 24.1646C123.331 23.9566 122.937 23.8526 122.497 23.8526H120.324V28.678H116.664Z" fill="#202027"/>
  <path d="M130.706 28.678V25.7251H136.538C136.695 25.7251 136.837 25.6931 136.963 25.6291C137.089 25.5491 137.191 25.445 137.27 25.317C137.349 25.189 137.388 25.0529 137.388 24.9089C137.388 24.7488 137.349 24.6048 137.27 24.4767C137.191 24.3487 137.089 24.2527 136.963 24.1887C136.837 24.1086 136.695 24.0686 136.538 24.0686H134.413C133.626 24.0686 132.91 23.9406 132.264 23.6845C131.635 23.4124 131.131 22.9963 130.753 22.4361C130.391 21.8599 130.21 21.1157 130.21 20.2034C130.21 19.4992 130.375 18.859 130.706 18.2828C131.052 17.7067 131.517 17.2425 132.099 16.8904C132.697 16.5383 133.35 16.3622 134.059 16.3622H139.891V19.3392H134.625C134.405 19.3392 134.216 19.4112 134.059 19.5552C133.917 19.6993 133.846 19.8753 133.846 20.0834C133.846 20.3075 133.917 20.4995 134.059 20.6596C134.216 20.8036 134.405 20.8756 134.625 20.8756H136.703C137.585 20.8756 138.34 21.0117 138.97 21.2838C139.616 21.5398 140.111 21.956 140.458 22.5321C140.82 23.1083 141.001 23.8526 141.001 24.7648C141.001 25.4851 140.82 26.1413 140.458 26.7334C140.111 27.3256 139.639 27.7978 139.041 28.1499C138.459 28.502 137.797 28.678 137.058 28.678H130.706Z" fill="#202027"/>
  <defs>
    <linearGradient id="paint0_linear_123_13753" x1="44.2842" y1="37.8011" x2="26.5819" y2="22.24" gradientUnits="userSpaceOnUse">
      <stop stop-color="#5F56AA"/>
      <stop offset="1" stop-color="#A591F8"/>
    </linearGradient>
    <linearGradient id="paint1_linear_123_13753" x1="24.229" y1="0.976146" x2="5.83731" y2="36.326" gradientUnits="userSpaceOnUse">
      <stop stop-color="#5F56AA"/>
      <stop offset="1" stop-color="#A591F8"/>
    </linearGradient>
    <linearGradient id="paint2_linear_123_13753" x1="-4.54566" y1="37.5459" x2="41.7911" y2="35.002" gradientUnits="userSpaceOnUse">
      <stop stop-color="#5F56AA"/>
      <stop offset="1" stop-color="#A591F8"/>
    </linearGradient>
  </defs>
</svg>