<svg width="75" height="14" viewBox="0 0 75 14" fill="none" xmlns="http://www.w3.org/2000/svg">
<path d="M0.458984 13.7263H13.6539V0.542725H0.458984V13.7263Z" fill="#16E09E"/>
<path d="M11.7067 6.15182L4.22269 11.5838L5.31475 8.22664L2.45605 6.15182H5.98955L7.08138 2.79443L8.17322 6.15182H11.7067ZM7.08166 9.50921L9.12556 9.07965L9.9399 11.5838L7.08166 9.50921Z" fill="white"/>
<path d="M15.6539 13.7263H28.8489V0.542725H15.6539V13.7263Z" fill="#16E09E"/>
<path d="M15.6539 13.7263H22.2514V0.542725H15.6539V13.7263Z" fill="#16E09E"/>
<path d="M22.4092 9.45779L24.1619 9.07936L24.9725 11.6404L22.2239 9.59077L19.3682 11.6404L20.4766 8.27103L17.5749 6.18867H21.1615L22.2694 2.81909L23.3778 6.18867H26.9642L22.4092 9.45779V9.45779Z" fill="white"/>
<path d="M30.8489 13.7263H44.0438V0.542725H30.8489V13.7263Z" fill="#16E09E"/>
<path d="M30.8489 13.7263H37.4464V0.542725H30.8489V13.7263Z" fill="#16E09E"/>
<path d="M42.0966 6.15182L34.6126 11.5838L35.7046 8.22664L32.8459 6.15182H36.3794L37.4713 2.79443L38.5631 6.15182H42.0966V6.15182ZM37.4715 9.50922L39.5155 9.07965L40.3298 11.5838L37.4715 9.50922Z" fill="white"/>
<path d="M46.0438 13.7263H59.2388V0.542725H46.0438V13.7263Z" fill="#16E09E"/>
<path d="M46.0438 13.7263H52.6413V0.542725H46.0438V13.7263Z" fill="#16E09E"/>
<path d="M57.2916 6.15182L49.8075 11.5838L50.8996 8.22664L48.0409 6.15182H51.5744L52.6662 2.79443L53.7581 6.15182H57.2916V6.15182ZM52.6665 9.50922L54.7104 9.07965L55.5247 11.5838L52.6665 9.50922Z" fill="white"/>
<path d="M61.2388 13.7263H74.4338V0.542725H61.2388V13.7263Z" fill="#DCDCE6"/>
<path d="M61.2388 13.7263H67.8363V0.542725H61.2388V13.7263Z" fill="#16E09E"/>
<path d="M72.4866 6.15182L65.0028 11.5838L66.0946 8.22664L63.2359 6.15182H66.7694L67.8612 2.79443L68.9531 6.15182H72.4866V6.15182ZM67.8615 9.50922L69.9054 9.07965L70.7197 11.5838L67.8615 9.50922Z" fill="white"/>
</svg>
